<svg width="267" height="55" viewBox="0 0 267 55" fill="none" xmlns="http://www.w3.org/2000/svg">
<rect x="1.5" y="5.5" width="64" height="43" rx="8.5" stroke="white" stroke-width="3"/>
<path d="M33.6094 20.6562H24.6562V39H20.5938V20.6562H11.625V16.5938H33.6094V20.6562ZM56.6588 16.5938L46.0494 38.2031C45.8827 38.5365 45.6327 38.8021 45.2994 39C44.9765 39.2083 44.6171 39.3125 44.2213 39.3125C43.8358 39.3125 43.4765 39.2083 43.1431 39C42.8202 38.8021 42.5702 38.5365 42.3931 38.2031L31.7994 16.5938H36.3463L44.2213 32.7344L52.1275 16.5938H56.6588ZM101.735 39H97.6413V25.6562L90.4381 38.3281C90.261 38.651 90.011 38.8958 89.6881 39.0625C89.3756 39.2292 89.0371 39.3125 88.6725 39.3125C88.3183 39.3125 87.985 39.2292 87.6725 39.0625C87.3704 38.8958 87.1308 38.651 86.9538 38.3281L79.7194 25.6562V39H75.6569V18.3281C75.6569 17.8594 75.7923 17.4427 76.0631 17.0781C76.3444 16.7135 76.709 16.4688 77.1569 16.3438C77.3756 16.2917 77.5944 16.276 77.8131 16.2969C78.0319 16.3073 78.2402 16.3542 78.4381 16.4375C78.6465 16.5104 78.834 16.6198 79.0006 16.7656C79.1673 16.901 79.3079 17.0677 79.4225 17.2656L88.6725 33.3438L97.9225 17.2656C98.1621 16.8698 98.4902 16.5885 98.9069 16.4219C99.334 16.2552 99.7767 16.2292 100.235 16.3438C100.673 16.4688 101.032 16.7135 101.313 17.0781C101.594 17.4427 101.735 17.8594 101.735 18.3281V39ZM121.706 33.2969C121.706 33.9948 121.618 34.625 121.441 35.1875C121.264 35.7396 121.029 36.2292 120.738 36.6562C120.446 37.0729 120.107 37.4323 119.722 37.7344C119.336 38.026 118.93 38.2656 118.503 38.4531C118.086 38.6406 117.659 38.7812 117.222 38.875C116.795 38.9583 116.389 39 116.003 39H108.675C108.113 39 107.498 38.901 106.831 38.7031C106.165 38.5052 105.545 38.1823 104.972 37.7344C104.409 37.276 103.935 36.6875 103.55 35.9688C103.175 35.2396 102.988 34.349 102.988 33.2969V27.7969C102.988 26.7552 103.175 25.875 103.55 25.1562C103.935 24.4271 104.409 23.8385 104.972 23.3906C105.545 22.9323 106.165 22.6042 106.831 22.4062C107.498 22.2083 108.113 22.1094 108.675 22.1094H116.003C117.045 22.1094 117.93 22.2969 118.659 22.6719C119.389 23.0469 119.977 23.5208 120.425 24.0938C120.873 24.6562 121.196 25.2708 121.394 25.9375C121.602 26.6042 121.706 27.224 121.706 27.7969V33.2969ZM117.644 27.8281C117.644 27.2656 117.503 26.849 117.222 26.5781C116.941 26.3073 116.534 26.1719 116.003 26.1719H108.706C108.165 26.1719 107.753 26.3125 107.472 26.5938C107.191 26.8646 107.05 27.2656 107.05 27.7969V33.2969C107.05 33.8281 107.191 34.2344 107.472 34.5156C107.753 34.7969 108.165 34.9375 108.706 34.9375H116.003C116.555 34.9375 116.967 34.7969 117.238 34.5156C117.508 34.2344 117.644 33.8281 117.644 33.2969V27.8281ZM141.084 36.9531C141.084 37.2448 141.032 37.5156 140.927 37.7656C140.823 38.0156 140.677 38.2344 140.49 38.4219C140.313 38.599 140.099 38.7396 139.849 38.8438C139.61 38.9479 139.349 39 139.068 39H129.881C129.381 39 128.844 38.9427 128.271 38.8281C127.709 38.7135 127.151 38.5312 126.599 38.2812C126.047 38.0208 125.511 37.6979 124.99 37.3125C124.48 36.9167 124.032 36.4427 123.646 35.8906C123.261 35.3281 122.948 34.6823 122.709 33.9531C122.48 33.224 122.365 32.401 122.365 31.4844V22.1094H126.427V31.4844C126.427 32.0156 126.516 32.4948 126.693 32.9219C126.881 33.3385 127.131 33.6979 127.443 34C127.756 34.3021 128.12 34.5365 128.537 34.7031C128.964 34.8594 129.422 34.9375 129.912 34.9375H137.021V22.1094H141.084V36.9531ZM161.055 39H156.992V29.625C156.992 29.0938 156.899 28.6198 156.711 28.2031C156.534 27.776 156.289 27.4115 155.977 27.1094C155.664 26.8073 155.295 26.5781 154.867 26.4219C154.451 26.2552 153.998 26.1719 153.508 26.1719H146.399V39H142.336V24.125C142.336 23.8438 142.388 23.5833 142.492 23.3438C142.597 23.0938 142.742 22.8802 142.93 22.7031C143.117 22.5156 143.336 22.3698 143.586 22.2656C143.836 22.1615 144.102 22.1094 144.383 22.1094H153.539C154.05 22.1094 154.586 22.1667 155.149 22.2812C155.722 22.3958 156.284 22.5833 156.836 22.8438C157.399 23.0938 157.93 23.4167 158.43 23.8125C158.94 24.1979 159.388 24.6719 159.774 25.2344C160.17 25.7865 160.482 26.4271 160.711 27.1562C160.94 27.8854 161.055 28.7083 161.055 29.625V39ZM176.917 26.1719H169.823V39H165.714V26.1719H160.432V22.1094H165.714V16.5938H169.823V22.1094H176.917V26.1719ZM195.654 40.625C195.654 41.3229 195.565 41.9479 195.388 42.5C195.211 43.0625 194.977 43.5521 194.685 43.9688C194.393 44.3958 194.055 44.7552 193.669 45.0469C193.284 45.349 192.878 45.5938 192.451 45.7812C192.034 45.9688 191.612 46.1042 191.185 46.1875C190.758 46.2812 190.352 46.3281 189.966 46.3281H182.638V42.2656H189.966C190.508 42.2656 190.914 42.125 191.185 41.8438C191.456 41.5625 191.591 41.1562 191.591 40.625V22.1094H195.654V40.625ZM189.966 39H182.638C182.055 39 181.43 38.901 180.763 38.7031C180.107 38.5052 179.492 38.1823 178.919 37.7344C178.346 37.276 177.872 36.6875 177.497 35.9688C177.122 35.2396 176.935 34.349 176.935 33.2969V22.1094H180.997V33.2969C180.997 33.8281 181.138 34.2344 181.419 34.5156C181.701 34.7969 182.117 34.9375 182.669 34.9375H189.966V39Z" fill="white"/>
<path d="M200.359 36.9531C200.359 37.2344 200.302 37.5 200.188 37.75C200.083 37.9896 199.938 38.2031 199.75 38.3906C199.573 38.5677 199.359 38.7083 199.109 38.8125C198.87 38.9167 198.615 38.9688 198.344 38.9688C198.062 38.9688 197.797 38.9167 197.547 38.8125C197.307 38.7083 197.094 38.5677 196.906 38.3906C196.729 38.2031 196.589 37.9896 196.484 37.75C196.38 37.5 196.328 37.2344 196.328 36.9531C196.328 36.6823 196.38 36.4271 196.484 36.1875C196.589 35.9375 196.729 35.724 196.906 35.5469C197.094 35.3594 197.307 35.2135 197.547 35.1094C197.797 34.9948 198.062 34.9375 198.344 34.9375C198.615 34.9375 198.87 34.9948 199.109 35.1094C199.359 35.2135 199.573 35.3594 199.75 35.5469C199.938 35.724 200.083 35.9375 200.188 36.1875C200.302 36.4271 200.359 36.6823 200.359 36.9531ZM217.331 39H206.315C205.753 39 205.138 38.901 204.471 38.7031C203.805 38.5052 203.185 38.1823 202.612 37.7344C202.049 37.276 201.575 36.6875 201.19 35.9688C200.815 35.2396 200.628 34.349 200.628 33.2969V27.7969C200.628 27.4115 200.669 27.0052 200.753 26.5781C200.846 26.151 200.987 25.7292 201.174 25.3125C201.362 24.8854 201.601 24.4792 201.893 24.0938C202.195 23.7083 202.555 23.3698 202.971 23.0781C203.398 22.7865 203.888 22.5521 204.44 22.375C204.992 22.1979 205.617 22.1094 206.315 22.1094H217.331V26.1719H206.315C205.784 26.1719 205.378 26.3073 205.096 26.5781C204.825 26.849 204.69 27.2656 204.69 27.8281V33.2969C204.69 33.8281 204.831 34.2344 205.112 34.5156C205.393 34.7969 205.805 34.9375 206.346 34.9375H217.331V39ZM236.38 33.2969C236.38 33.9948 236.291 34.625 236.114 35.1875C235.937 35.7396 235.703 36.2292 235.411 36.6562C235.12 37.0729 234.781 37.4323 234.396 37.7344C234.01 38.026 233.604 38.2656 233.177 38.4531C232.76 38.6406 232.333 38.7812 231.896 38.875C231.469 38.9583 231.062 39 230.677 39H223.349C222.786 39 222.172 38.901 221.505 38.7031C220.838 38.5052 220.219 38.1823 219.646 37.7344C219.083 37.276 218.609 36.6875 218.224 35.9688C217.849 35.2396 217.661 34.349 217.661 33.2969V27.7969C217.661 26.7552 217.849 25.875 218.224 25.1562C218.609 24.4271 219.083 23.8385 219.646 23.3906C220.219 22.9323 220.838 22.6042 221.505 22.4062C222.172 22.2083 222.786 22.1094 223.349 22.1094H230.677C231.719 22.1094 232.604 22.2969 233.333 22.6719C234.062 23.0469 234.651 23.5208 235.099 24.0938C235.547 24.6562 235.87 25.2708 236.068 25.9375C236.276 26.6042 236.38 27.224 236.38 27.7969V33.2969ZM232.318 27.8281C232.318 27.2656 232.177 26.849 231.896 26.5781C231.614 26.3073 231.208 26.1719 230.677 26.1719H223.38C222.838 26.1719 222.427 26.3125 222.146 26.5938C221.864 26.8646 221.724 27.2656 221.724 27.7969V33.2969C221.724 33.8281 221.864 34.2344 222.146 34.5156C222.427 34.7969 222.838 34.9375 223.38 34.9375H230.677C231.229 34.9375 231.64 34.7969 231.911 34.5156C232.182 34.2344 232.318 33.8281 232.318 33.2969V27.8281ZM252.367 39H248.304V27.7969C248.304 27.2656 248.164 26.8646 247.883 26.5938C247.601 26.3125 247.185 26.1719 246.633 26.1719H241.351V39H237.289V24.125C237.289 23.8438 237.341 23.5833 237.445 23.3438C237.549 23.0938 237.695 22.8802 237.883 22.7031C238.07 22.5156 238.289 22.3698 238.539 22.2656C238.789 22.1615 239.054 22.1094 239.336 22.1094H246.664C247.226 22.1094 247.83 22.2083 248.476 22.4062C249.122 22.6042 249.737 22.9219 250.32 23.3594V22.1094H255.82C256.205 22.1094 256.612 22.1562 257.039 22.25C257.466 22.3333 257.888 22.4688 258.304 22.6562C258.731 22.8438 259.138 23.0885 259.523 23.3906C259.909 23.6823 260.247 24.0417 260.539 24.4688C260.83 24.8854 261.065 25.3698 261.242 25.9219C261.419 26.474 261.508 27.099 261.508 27.7969V39H257.445V27.7969C257.445 27.2656 257.31 26.8646 257.039 26.5938C256.778 26.3125 256.372 26.1719 255.82 26.1719H252.164C252.299 26.6719 252.367 27.2135 252.367 27.7969V39Z" fill="#219EBC"/>
</svg>
